<svg width="1574" height="1474" viewBox="0 0 1574 1474" fill="none" xmlns="http://www.w3.org/2000/svg">
<g clip-path="url(#clip0_5_19347)">
<mask id="mask0_5_19347" style="mask-type:luminance" maskUnits="userSpaceOnUse" x="0" y="0" width="1574" height="1474">
<path d="M1574 0H0V1474H1574V0Z" fill="white"/>
</mask>
<g mask="url(#mask0_5_19347)">
<path style="mix-blend-mode:overlay" opacity="0.3" d="M848.5 270V998" stroke="url(#paint0_linear_5_19347)"/>
<path style="mix-blend-mode:overlay" opacity="0.3" d="M828.5 270V998" stroke="url(#paint1_linear_5_19347)"/>
<path style="mix-blend-mode:overlay" opacity="0.3" d="M596.5 610V1002" stroke="url(#paint2_linear_5_19347)"/>
<path style="mix-blend-mode:overlay" opacity="0.3" d="M438.5 664V1002" stroke="url(#paint3_linear_5_19347)"/>
<path style="mix-blend-mode:overlay" opacity="0.3" d="M576.5 610V1002" stroke="url(#paint4_linear_5_19347)"/>
<path style="mix-blend-mode:overlay" opacity="0.3" d="M418.5 669V1002" stroke="url(#paint5_linear_5_19347)"/>
<path style="mix-blend-mode:overlay" opacity="0.3" d="M1016.5 270V999" stroke="url(#paint6_linear_5_19347)"/>
<path style="mix-blend-mode:overlay" opacity="0.3" d="M996.5 234V1104" stroke="url(#paint7_linear_5_19347)"/>
<path style="mix-blend-mode:overlay" opacity="0.3" d="M1382.5 234V1708" stroke="url(#paint8_linear_5_19347)"/>
<path style="mix-blend-mode:overlay" opacity="0.3" d="M1362.5 234V1708" stroke="url(#paint9_linear_5_19347)"/>
<path style="mix-blend-mode:overlay" opacity="0.3" d="M1573 404.5H717" stroke="url(#paint10_linear_5_19347)"/>
<path style="mix-blend-mode:overlay" opacity="0.3" d="M1573 384.5H717" stroke="url(#paint11_linear_5_19347)"/>
<path style="mix-blend-mode:overlay" opacity="0.3" d="M1573 745H251" stroke="url(#paint12_linear_5_19347)"/>
<path style="mix-blend-mode:overlay" opacity="0.3" d="M1573 937.5H-1" stroke="url(#paint13_linear_5_19347)"/>
<path style="mix-blend-mode:overlay" opacity="0.3" d="M1573 1201.5H1030" stroke="url(#paint14_linear_5_19347)"/>
<path style="mix-blend-mode:overlay" opacity="0.3" d="M1573 1057.5H1030" stroke="url(#paint15_linear_5_19347)"/>
<path style="mix-blend-mode:overlay" opacity="0.3" d="M1573 765L-1 765" stroke="url(#paint16_linear_5_19347)"/>
<path style="mix-blend-mode:overlay" opacity="0.3" d="M1573 917.5H-1" stroke="url(#paint17_linear_5_19347)"/>
<path style="mix-blend-mode:overlay" opacity="0.3" d="M1573 1221.5H1030" stroke="url(#paint18_linear_5_19347)"/>
<path style="mix-blend-mode:overlay" opacity="0.3" d="M1573 1077.5H1030" stroke="url(#paint19_linear_5_19347)"/>
<path style="mix-blend-mode:overlay" opacity="0.2" d="M317.111 770H254.889C252.741 770 251 772.239 251 775V835C251 837.761 252.741 840 254.889 840H317.111C319.259 840 321 837.761 321 835V775C321 772.239 319.259 770 317.111 770Z" fill="url(#paint20_linear_5_19347)"/>
<path style="mix-blend-mode:overlay" opacity="0.5" d="M317.36 770H254.64C252.63 770 251 772.07 251 774.624V834.376C251 836.93 252.63 839 254.64 839H317.36C319.37 839 321 836.93 321 834.376V774.624C321 772.07 319.37 770 317.36 770Z" stroke="url(#paint21_linear_5_19347)"/>
<path style="mix-blend-mode:overlay" opacity="0.2" d="M1179.79 411H1024.21C1021.88 411 1020 413.311 1020 416.161V565.839C1020 568.689 1021.88 571 1024.21 571H1179.79C1182.12 571 1184 568.689 1184 565.839V416.161C1184 413.311 1182.12 411 1179.79 411Z" fill="url(#paint22_linear_5_19347)"/>
<path style="mix-blend-mode:overlay" opacity="0.7" d="M1180.3 411H1023.7C1021.66 411 1020 413.038 1020 415.553V566.447C1020 568.962 1021.66 571 1023.7 571H1180.3C1182.34 571 1184 568.962 1184 566.447V415.553C1184 413.038 1182.34 411 1180.3 411Z" stroke="url(#paint23_linear_5_19347)"/>
<path style="mix-blend-mode:overlay" opacity="0.2" d="M1179.79 581H1024.21C1021.88 581 1020 583.311 1020 586.161V735.839C1020 738.689 1021.88 741 1024.21 741H1179.79C1182.12 741 1184 738.689 1184 735.839V586.161C1184 583.311 1182.12 581 1179.79 581Z" fill="url(#paint24_linear_5_19347)"/>
<path style="mix-blend-mode:overlay" opacity="0.7" d="M1180.3 581H1023.7C1021.66 581 1020 583.038 1020 585.553V736.447C1020 738.962 1021.66 741 1023.7 741H1180.3C1182.34 741 1184 738.962 1184 736.447V585.553C1184 583.038 1182.34 581 1180.3 581Z" stroke="url(#paint25_linear_5_19347)"/>
<path style="mix-blend-mode:overlay" opacity="0.2" d="M1354.79 581H1199.21C1196.88 581 1195 583.311 1195 586.161V735.839C1195 738.689 1196.88 741 1199.21 741H1354.79C1357.12 741 1359 738.689 1359 735.839V586.161C1359 583.311 1357.12 581 1354.79 581Z" fill="url(#paint26_linear_5_19347)"/>
<path style="mix-blend-mode:overlay" opacity="0.7" d="M1355.3 581H1198.7C1196.66 581 1195 583.038 1195 585.553V736.447C1195 738.962 1196.66 741 1198.7 741H1355.3C1357.34 741 1359 738.962 1359 736.447V585.553C1359 583.038 1357.34 581 1355.3 581Z" stroke="url(#paint27_linear_5_19347)"/>
<path style="mix-blend-mode:overlay" opacity="0.2" d="M1354.79 411H1199.21C1196.88 411 1195 413.311 1195 416.161V565.839C1195 568.689 1196.88 571 1199.21 571H1354.79C1357.12 571 1359 568.689 1359 565.839V416.161C1359 413.311 1357.12 411 1354.79 411Z" fill="url(#paint28_linear_5_19347)"/>
<path style="mix-blend-mode:overlay" opacity="0.7" d="M1355.3 411H1198.7C1196.66 411 1195 413.038 1195 415.553V566.447C1195 568.962 1196.66 571 1198.7 571H1355.3C1357.34 571 1359 568.962 1359 566.447V415.553C1359 413.038 1357.34 411 1355.3 411Z" stroke="url(#paint29_linear_5_19347)"/>
<path style="mix-blend-mode:overlay" opacity="0.2" d="M395.111 770H332.889C330.741 770 329 772.239 329 775V835C329 837.761 330.741 840 332.889 840H395.111C397.259 840 399 837.761 399 835V775C399 772.239 397.259 770 395.111 770Z" fill="url(#paint30_linear_5_19347)"/>
<path style="mix-blend-mode:overlay" opacity="0.5" d="M395.36 770H332.64C330.63 770 329 772.07 329 774.624V834.376C329 836.93 330.63 839 332.64 839H395.36C397.37 839 399 836.93 399 834.376V774.624C399 772.07 397.37 770 395.36 770Z" stroke="url(#paint31_linear_5_19347)"/>
<path style="mix-blend-mode:overlay" opacity="0.2" d="M395.111 845H332.889C330.741 845 329 847.239 329 850V910C329 912.76 330.741 915 332.889 915H395.111C397.259 915 399 912.76 399 910V850C399 847.239 397.259 845 395.111 845Z" fill="url(#paint32_linear_5_19347)"/>
<path style="mix-blend-mode:overlay" opacity="0.5" d="M395.36 845H332.64C330.63 845 329 847.07 329 849.624V909.38C329 911.93 330.63 914 332.64 914H395.36C397.37 914 399 911.93 399 909.38V849.624C399 847.07 397.37 845 395.36 845Z" stroke="url(#paint33_linear_5_19347)"/>
<path style="mix-blend-mode:overlay" opacity="0.2" d="M317.111 845H254.889C252.741 845 251 847.239 251 850V910C251 912.76 252.741 915 254.889 915H317.111C319.259 915 321 912.76 321 910V850C321 847.239 319.259 845 317.111 845Z" fill="url(#paint34_linear_5_19347)"/>
<path style="mix-blend-mode:overlay" opacity="0.5" d="M317.36 845H254.64C252.63 845 251 847.07 251 849.624V909.38C251 911.93 252.63 914 254.64 914H317.36C319.37 914 321 911.93 321 909.38V849.624C321 847.07 319.37 845 317.36 845Z" stroke="url(#paint35_linear_5_19347)"/>
<path style="mix-blend-mode:overlay" opacity="0.15" d="M410.092 415H234.908C229.994 415 226 417.686 226 421V468C226 471.314 229.994 474 234.908 474H410.092C415.006 474 419 471.314 419 468V421C419 417.686 415.006 415 410.092 415Z" fill="url(#paint36_linear_5_19347)"/>
<path style="mix-blend-mode:overlay" opacity="0.7" d="M235.143 416H409.857C414.358 416 418 418.462 418 421.5V468.5C418 471.538 414.358 474 409.857 474H235.143C230.642 474 227 471.538 227 468.5V421.5C227 418.462 230.642 416 235.143 416Z" stroke="url(#paint37_linear_5_19347)"/>
</g>
</g>
<defs>
<linearGradient id="paint0_linear_5_19347" x1="nan" y1="nan" x2="nan" y2="nan" gradientUnits="userSpaceOnUse">
<stop offset="0.124" stop-color="white" stop-opacity="0"/>
<stop offset="0.216" stop-color="white"/>
<stop offset="0.862" stop-color="white"/>
<stop offset="0.95" stop-color="white" stop-opacity="0"/>
</linearGradient>
<linearGradient id="paint1_linear_5_19347" x1="nan" y1="nan" x2="nan" y2="nan" gradientUnits="userSpaceOnUse">
<stop offset="0.14" stop-color="white" stop-opacity="0"/>
<stop offset="0.263" stop-color="white"/>
<stop offset="0.84" stop-color="white"/>
<stop offset="0.928" stop-color="white" stop-opacity="0"/>
</linearGradient>
<linearGradient id="paint2_linear_5_19347" x1="nan" y1="nan" x2="nan" y2="nan" gradientUnits="userSpaceOnUse">
<stop stop-color="white" stop-opacity="0"/>
<stop offset="0.142" stop-color="white"/>
<stop offset="0.725" stop-color="white"/>
<stop offset="0.844" stop-color="white" stop-opacity="0"/>
</linearGradient>
<linearGradient id="paint3_linear_5_19347" x1="nan" y1="nan" x2="nan" y2="nan" gradientUnits="userSpaceOnUse">
<stop stop-color="white" stop-opacity="0"/>
<stop offset="0.142" stop-color="white"/>
<stop offset="0.735" stop-color="white"/>
<stop offset="0.875" stop-color="white" stop-opacity="0"/>
</linearGradient>
<linearGradient id="paint4_linear_5_19347" x1="nan" y1="nan" x2="nan" y2="nan" gradientUnits="userSpaceOnUse">
<stop stop-color="white" stop-opacity="0"/>
<stop offset="0.142" stop-color="white"/>
<stop offset="0.745" stop-color="white"/>
<stop offset="0.886" stop-color="white" stop-opacity="0"/>
</linearGradient>
<linearGradient id="paint5_linear_5_19347" x1="nan" y1="nan" x2="nan" y2="nan" gradientUnits="userSpaceOnUse">
<stop stop-color="white" stop-opacity="0"/>
<stop offset="0.142" stop-color="white"/>
<stop offset="0.78" stop-color="white"/>
<stop offset="0.886" stop-color="white" stop-opacity="0"/>
</linearGradient>
<linearGradient id="paint6_linear_5_19347" x1="nan" y1="nan" x2="nan" y2="nan" gradientUnits="userSpaceOnUse">
<stop offset="0.133" stop-color="white" stop-opacity="0"/>
<stop offset="0.212" stop-color="white"/>
<stop offset="0.897" stop-color="white"/>
<stop offset="0.974" stop-color="white" stop-opacity="0"/>
</linearGradient>
<linearGradient id="paint7_linear_5_19347" x1="nan" y1="nan" x2="nan" y2="nan" gradientUnits="userSpaceOnUse">
<stop offset="0.165" stop-color="white" stop-opacity="0"/>
<stop offset="0.287" stop-color="white"/>
<stop offset="0.805" stop-color="white"/>
<stop offset="0.874" stop-color="white" stop-opacity="0"/>
</linearGradient>
<linearGradient id="paint8_linear_5_19347" x1="nan" y1="nan" x2="nan" y2="nan" gradientUnits="userSpaceOnUse">
<stop offset="0.083" stop-color="white" stop-opacity="0"/>
<stop offset="0.137" stop-color="white"/>
<stop offset="0.813" stop-color="white"/>
<stop offset="0.946" stop-color="white" stop-opacity="0"/>
</linearGradient>
<linearGradient id="paint9_linear_5_19347" x1="nan" y1="nan" x2="nan" y2="nan" gradientUnits="userSpaceOnUse">
<stop offset="0.083" stop-color="white" stop-opacity="0"/>
<stop offset="0.137" stop-color="white"/>
<stop offset="0.813" stop-color="white"/>
<stop offset="0.946" stop-color="white" stop-opacity="0"/>
</linearGradient>
<linearGradient id="paint10_linear_5_19347" x1="nan" y1="nan" x2="nan" y2="nan" gradientUnits="userSpaceOnUse">
<stop offset="0.058" stop-color="white" stop-opacity="0"/>
<stop offset="0.121" stop-color="white"/>
<stop offset="0.742" stop-color="white"/>
<stop offset="0.849" stop-color="white" stop-opacity="0"/>
</linearGradient>
<linearGradient id="paint11_linear_5_19347" x1="nan" y1="nan" x2="nan" y2="nan" gradientUnits="userSpaceOnUse">
<stop offset="0.063" stop-color="white" stop-opacity="0"/>
<stop offset="0.121" stop-color="white"/>
<stop offset="0.741" stop-color="white"/>
<stop offset="0.862" stop-color="white" stop-opacity="0"/>
</linearGradient>
<linearGradient id="paint12_linear_5_19347" x1="nan" y1="nan" x2="nan" y2="nan" gradientUnits="userSpaceOnUse">
<stop stop-color="white" stop-opacity="0"/>
<stop offset="0.073" stop-color="white"/>
<stop offset="0.239" stop-color="white"/>
<stop offset="0.274" stop-color="white" stop-opacity="0.28"/>
<stop offset="0.307" stop-color="white" stop-opacity="0"/>
<stop offset="0.391" stop-color="white" stop-opacity="0"/>
<stop offset="0.419" stop-color="white" stop-opacity="0.7"/>
<stop offset="0.453" stop-color="white"/>
<stop offset="0.84" stop-color="white"/>
<stop offset="0.902" stop-color="white" stop-opacity="0"/>
</linearGradient>
<linearGradient id="paint13_linear_5_19347" x1="nan" y1="nan" x2="nan" y2="nan" gradientUnits="userSpaceOnUse">
<stop offset="0.028" stop-color="white" stop-opacity="0"/>
<stop offset="0.097" stop-color="white"/>
<stop offset="0.366" stop-color="white"/>
<stop offset="0.396" stop-color="white" stop-opacity="0.29"/>
<stop offset="0.42" stop-color="white" stop-opacity="0"/>
<stop offset="0.482" stop-color="white" stop-opacity="0"/>
<stop offset="0.512" stop-color="white" stop-opacity="0.29"/>
<stop offset="0.544" stop-color="white"/>
<stop offset="0.868" stop-color="white"/>
<stop offset="0.919" stop-color="white" stop-opacity="0"/>
</linearGradient>
<linearGradient id="paint14_linear_5_19347" x1="nan" y1="nan" x2="nan" y2="nan" gradientUnits="userSpaceOnUse">
<stop offset="0.099" stop-color="white" stop-opacity="0"/>
<stop offset="0.189" stop-color="white"/>
<stop offset="0.652" stop-color="white"/>
<stop offset="0.75" stop-color="white" stop-opacity="0"/>
</linearGradient>
<linearGradient id="paint15_linear_5_19347" x1="nan" y1="nan" x2="nan" y2="nan" gradientUnits="userSpaceOnUse">
<stop offset="0.099" stop-color="white" stop-opacity="0"/>
<stop offset="0.189" stop-color="white"/>
<stop offset="0.652" stop-color="white"/>
<stop offset="0.75" stop-color="white" stop-opacity="0"/>
</linearGradient>
<linearGradient id="paint16_linear_5_19347" x1="nan" y1="nan" x2="nan" y2="nan" gradientUnits="userSpaceOnUse">
<stop offset="0.004" stop-color="white" stop-opacity="0"/>
<stop offset="0.037" stop-color="white"/>
<stop offset="0.241" stop-color="white"/>
<stop offset="0.274" stop-color="white" stop-opacity="0.3"/>
<stop offset="0.307" stop-color="white" stop-opacity="0"/>
<stop offset="0.382" stop-color="white" stop-opacity="0"/>
<stop offset="0.415" stop-color="white" stop-opacity="0.34"/>
<stop offset="0.443" stop-color="white"/>
<stop offset="0.839" stop-color="white"/>
<stop offset="0.908" stop-color="white" stop-opacity="0"/>
</linearGradient>
<linearGradient id="paint17_linear_5_19347" x1="nan" y1="nan" x2="nan" y2="nan" gradientUnits="userSpaceOnUse">
<stop stop-color="white" stop-opacity="0"/>
<stop offset="0.082" stop-color="white"/>
<stop offset="0.347" stop-color="white"/>
<stop offset="0.392" stop-color="white" stop-opacity="0.31"/>
<stop offset="0.413" stop-color="white" stop-opacity="0"/>
<stop offset="0.484" stop-color="white" stop-opacity="0"/>
<stop offset="0.512" stop-color="white" stop-opacity="0.24"/>
<stop offset="0.547" stop-color="white"/>
<stop offset="0.871" stop-color="white"/>
<stop offset="0.937" stop-color="white" stop-opacity="0"/>
</linearGradient>
<linearGradient id="paint18_linear_5_19347" x1="nan" y1="nan" x2="nan" y2="nan" gradientUnits="userSpaceOnUse">
<stop offset="0.099" stop-color="white" stop-opacity="0"/>
<stop offset="0.2" stop-color="white"/>
<stop offset="0.652" stop-color="white"/>
<stop offset="0.75" stop-color="white" stop-opacity="0"/>
</linearGradient>
<linearGradient id="paint19_linear_5_19347" x1="nan" y1="nan" x2="nan" y2="nan" gradientUnits="userSpaceOnUse">
<stop offset="0.099" stop-color="white" stop-opacity="0"/>
<stop offset="0.189" stop-color="white"/>
<stop offset="0.652" stop-color="white"/>
<stop offset="0.75" stop-color="white" stop-opacity="0"/>
</linearGradient>
<linearGradient id="paint20_linear_5_19347" x1="251" y1="770" x2="333.247" y2="819.755" gradientUnits="userSpaceOnUse">
<stop stop-color="white" stop-opacity="0.2"/>
<stop offset="0.699" stop-color="white"/>
</linearGradient>
<linearGradient id="paint21_linear_5_19347" x1="250.72" y1="769.644" x2="333.085" y2="820.076" gradientUnits="userSpaceOnUse">
<stop stop-color="white" stop-opacity="0.2"/>
<stop offset="0.858" stop-color="white"/>
</linearGradient>
<linearGradient id="paint22_linear_5_19347" x1="1020" y1="571" x2="1201.52" y2="477.145" gradientUnits="userSpaceOnUse">
<stop stop-color="white"/>
<stop offset="1" stop-color="white" stop-opacity="0.6"/>
</linearGradient>
<linearGradient id="paint23_linear_5_19347" x1="1184.53" y1="410.35" x2="1035.79" y2="540.798" gradientUnits="userSpaceOnUse">
<stop stop-color="white" stop-opacity="0.6"/>
<stop offset="1" stop-color="white"/>
</linearGradient>
<linearGradient id="paint24_linear_5_19347" x1="1020" y1="741" x2="1201.52" y2="647.145" gradientUnits="userSpaceOnUse">
<stop stop-color="white"/>
<stop offset="1" stop-color="white" stop-opacity="0.6"/>
</linearGradient>
<linearGradient id="paint25_linear_5_19347" x1="1184.53" y1="580.35" x2="1035.79" y2="710.798" gradientUnits="userSpaceOnUse">
<stop stop-color="white" stop-opacity="0.6"/>
<stop offset="1" stop-color="white"/>
</linearGradient>
<linearGradient id="paint26_linear_5_19347" x1="1195" y1="741" x2="1376.52" y2="647.145" gradientUnits="userSpaceOnUse">
<stop stop-color="white"/>
<stop offset="1" stop-color="white" stop-opacity="0.6"/>
</linearGradient>
<linearGradient id="paint27_linear_5_19347" x1="1359.53" y1="580.35" x2="1210.79" y2="710.798" gradientUnits="userSpaceOnUse">
<stop stop-color="white" stop-opacity="0.6"/>
<stop offset="1" stop-color="white"/>
</linearGradient>
<linearGradient id="paint28_linear_5_19347" x1="1195" y1="571" x2="1376.52" y2="477.145" gradientUnits="userSpaceOnUse">
<stop stop-color="white"/>
<stop offset="1" stop-color="white" stop-opacity="0.6"/>
</linearGradient>
<linearGradient id="paint29_linear_5_19347" x1="1359.53" y1="410.35" x2="1210.79" y2="540.798" gradientUnits="userSpaceOnUse">
<stop stop-color="white" stop-opacity="0.6"/>
<stop offset="1" stop-color="white"/>
</linearGradient>
<linearGradient id="paint30_linear_5_19347" x1="329" y1="770" x2="411.247" y2="819.755" gradientUnits="userSpaceOnUse">
<stop stop-color="white" stop-opacity="0.2"/>
<stop offset="0.699" stop-color="white"/>
</linearGradient>
<linearGradient id="paint31_linear_5_19347" x1="328.72" y1="769.644" x2="411.085" y2="820.076" gradientUnits="userSpaceOnUse">
<stop stop-color="white" stop-opacity="0.2"/>
<stop offset="0.858" stop-color="white"/>
</linearGradient>
<linearGradient id="paint32_linear_5_19347" x1="329" y1="845" x2="411.247" y2="894.755" gradientUnits="userSpaceOnUse">
<stop stop-color="white" stop-opacity="0.2"/>
<stop offset="0.699" stop-color="white"/>
</linearGradient>
<linearGradient id="paint33_linear_5_19347" x1="328.72" y1="844.644" x2="411.085" y2="895.076" gradientUnits="userSpaceOnUse">
<stop stop-color="white" stop-opacity="0.2"/>
<stop offset="0.858" stop-color="white"/>
</linearGradient>
<linearGradient id="paint34_linear_5_19347" x1="251" y1="845" x2="333.247" y2="894.755" gradientUnits="userSpaceOnUse">
<stop stop-color="white" stop-opacity="0.2"/>
<stop offset="0.699" stop-color="white"/>
</linearGradient>
<linearGradient id="paint35_linear_5_19347" x1="250.72" y1="844.644" x2="333.085" y2="895.076" gradientUnits="userSpaceOnUse">
<stop stop-color="white" stop-opacity="0.2"/>
<stop offset="0.858" stop-color="white"/>
</linearGradient>
<linearGradient id="paint36_linear_5_19347" x1="378.173" y1="415" x2="348.203" y2="485.004" gradientUnits="userSpaceOnUse">
<stop stop-color="white" stop-opacity="0.7"/>
<stop offset="1" stop-color="white"/>
</linearGradient>
<linearGradient id="paint37_linear_5_19347" x1="370.62" y1="415.5" x2="345.488" y2="483.052" gradientUnits="userSpaceOnUse">
<stop stop-color="white" stop-opacity="0.7"/>
<stop offset="1" stop-color="white"/>
</linearGradient>
<clipPath id="clip0_5_19347">
<rect width="1574" height="1474" fill="white"/>
</clipPath>
</defs>
</svg>
