<svg width="1574" height="1474" viewBox="0 0 1574 1474" fill="none" xmlns="http://www.w3.org/2000/svg">
<g clip-path="url(#clip0_5_17334)">
<mask id="mask0_5_17334" style="mask-type:luminance" maskUnits="userSpaceOnUse" x="0" y="136" width="1574" height="1474">
<path d="M1574 136H0V1610H1574V136Z" fill="white"/>
</mask>
<g mask="url(#mask0_5_17334)">
<path style="mix-blend-mode:overlay" opacity="0.3" d="M849.5 369V1097" stroke="url(#paint0_linear_5_17334)"/>
<path style="mix-blend-mode:overlay" opacity="0.3" d="M829.5 369V1097" stroke="url(#paint1_linear_5_17334)"/>
<path style="mix-blend-mode:overlay" opacity="0.3" d="M597.5 709V1101" stroke="url(#paint2_linear_5_17334)"/>
<path style="mix-blend-mode:overlay" opacity="0.3" d="M439.5 763V1101" stroke="url(#paint3_linear_5_17334)"/>
<path style="mix-blend-mode:overlay" opacity="0.3" d="M577.5 709V1101" stroke="url(#paint4_linear_5_17334)"/>
<path style="mix-blend-mode:overlay" opacity="0.3" d="M419.5 768V1101" stroke="url(#paint5_linear_5_17334)"/>
<path style="mix-blend-mode:overlay" opacity="0.3" d="M1017.5 369V1098" stroke="url(#paint6_linear_5_17334)"/>
<path style="mix-blend-mode:overlay" opacity="0.3" d="M997.5 333V1203" stroke="url(#paint7_linear_5_17334)"/>
<path style="mix-blend-mode:overlay" opacity="0.3" d="M1383.5 333V1807" stroke="url(#paint8_linear_5_17334)"/>
<path style="mix-blend-mode:overlay" opacity="0.3" d="M1363.5 333V1807" stroke="url(#paint9_linear_5_17334)"/>
<path style="mix-blend-mode:overlay" opacity="0.3" d="M1574 587.5H718" stroke="url(#paint10_linear_5_17334)"/>
<path style="mix-blend-mode:overlay" opacity="0.3" d="M1574 567.5H718" stroke="url(#paint11_linear_5_17334)"/>
<path style="mix-blend-mode:overlay" opacity="0.3" d="M1574 844H252" stroke="url(#paint12_linear_5_17334)"/>
<path style="mix-blend-mode:overlay" opacity="0.3" d="M1574 1036.5H0" stroke="url(#paint13_linear_5_17334)"/>
<path style="mix-blend-mode:overlay" opacity="0.3" d="M1574 1300.5H1031" stroke="url(#paint14_linear_5_17334)"/>
<path style="mix-blend-mode:overlay" opacity="0.3" d="M1574 1156.5H1031" stroke="url(#paint15_linear_5_17334)"/>
<path style="mix-blend-mode:overlay" opacity="0.3" d="M1574 864H252" stroke="url(#paint16_linear_5_17334)"/>
<path style="mix-blend-mode:overlay" opacity="0.3" d="M1574 1016.5H0" stroke="url(#paint17_linear_5_17334)"/>
<path style="mix-blend-mode:overlay" opacity="0.3" d="M1574 1320.5H1031" stroke="url(#paint18_linear_5_17334)"/>
<path style="mix-blend-mode:overlay" opacity="0.3" d="M1574 1176.5H1031" stroke="url(#paint19_linear_5_17334)"/>
<path style="mix-blend-mode:overlay" opacity="0.2" d="M318.111 869H255.889C253.741 869 252 871.239 252 874V934C252 936.761 253.741 939 255.889 939H318.111C320.259 939 322 936.761 322 934V874C322 871.239 320.259 869 318.111 869Z" fill="url(#paint20_linear_5_17334)"/>
<path style="mix-blend-mode:overlay" opacity="0.5" d="M318.36 869H255.64C253.63 869 252 871.07 252 873.624V933.376C252 935.93 253.63 938 255.64 938H318.36C320.37 938 322 935.93 322 933.376V873.624C322 871.07 320.37 869 318.36 869Z" stroke="url(#paint21_linear_5_17334)"/>
<path style="mix-blend-mode:overlay" opacity="0.2" d="M1180.79 510H1025.21C1022.88 510 1021 512.311 1021 515.161V664.839C1021 667.689 1022.88 670 1025.21 670H1180.79C1183.12 670 1185 667.689 1185 664.839V515.161C1185 512.311 1183.12 510 1180.79 510Z" fill="url(#paint22_linear_5_17334)"/>
<path style="mix-blend-mode:overlay" opacity="0.7" d="M1181.3 510H1024.7C1022.66 510 1021 512.038 1021 514.553V665.447C1021 667.962 1022.66 670 1024.7 670H1181.3C1183.34 670 1185 667.962 1185 665.447V514.553C1185 512.038 1183.34 510 1181.3 510Z" stroke="url(#paint23_linear_5_17334)"/>
<path style="mix-blend-mode:overlay" opacity="0.2" d="M1180.79 680H1025.21C1022.88 680 1021 682.311 1021 685.161V834.839C1021 837.689 1022.88 840 1025.21 840H1180.79C1183.12 840 1185 837.689 1185 834.839V685.161C1185 682.311 1183.12 680 1180.79 680Z" fill="url(#paint24_linear_5_17334)"/>
<path style="mix-blend-mode:overlay" opacity="0.7" d="M1181.3 680H1024.7C1022.66 680 1021 682.038 1021 684.553V835.447C1021 837.962 1022.66 840 1024.7 840H1181.3C1183.34 840 1185 837.962 1185 835.447V684.553C1185 682.038 1183.34 680 1181.3 680Z" stroke="url(#paint25_linear_5_17334)"/>
<path style="mix-blend-mode:overlay" opacity="0.2" d="M1355.79 680H1200.21C1197.88 680 1196 682.311 1196 685.161V834.839C1196 837.689 1197.88 840 1200.21 840H1355.79C1358.12 840 1360 837.689 1360 834.839V685.161C1360 682.311 1358.12 680 1355.79 680Z" fill="url(#paint26_linear_5_17334)"/>
<path style="mix-blend-mode:overlay" opacity="0.7" d="M1356.3 680H1199.7C1197.66 680 1196 682.038 1196 684.553V835.447C1196 837.962 1197.66 840 1199.7 840H1356.3C1358.34 840 1360 837.962 1360 835.447V684.553C1360 682.038 1358.34 680 1356.3 680Z" stroke="url(#paint27_linear_5_17334)"/>
<path style="mix-blend-mode:overlay" opacity="0.2" d="M1355.79 510H1200.21C1197.88 510 1196 512.311 1196 515.161V664.839C1196 667.689 1197.88 670 1200.21 670H1355.79C1358.12 670 1360 667.689 1360 664.839V515.161C1360 512.311 1358.12 510 1355.79 510Z" fill="url(#paint28_linear_5_17334)"/>
<path style="mix-blend-mode:overlay" opacity="0.7" d="M1356.3 510H1199.7C1197.66 510 1196 512.038 1196 514.553V665.447C1196 667.962 1197.66 670 1199.7 670H1356.3C1358.34 670 1360 667.962 1360 665.447V514.553C1360 512.038 1358.34 510 1356.3 510Z" stroke="url(#paint29_linear_5_17334)"/>
<path style="mix-blend-mode:overlay" opacity="0.2" d="M396.111 869H333.889C331.741 869 330 871.239 330 874V934C330 936.761 331.741 939 333.889 939H396.111C398.259 939 400 936.761 400 934V874C400 871.239 398.259 869 396.111 869Z" fill="url(#paint30_linear_5_17334)"/>
<path style="mix-blend-mode:overlay" opacity="0.5" d="M396.36 869H333.64C331.63 869 330 871.07 330 873.624V933.376C330 935.93 331.63 938 333.64 938H396.36C398.37 938 400 935.93 400 933.376V873.624C400 871.07 398.37 869 396.36 869Z" stroke="url(#paint31_linear_5_17334)"/>
<path style="mix-blend-mode:overlay" opacity="0.2" d="M396.111 944H333.889C331.741 944 330 946.239 330 949V1009C330 1011.76 331.741 1014 333.889 1014H396.111C398.259 1014 400 1011.76 400 1009V949C400 946.239 398.259 944 396.111 944Z" fill="url(#paint32_linear_5_17334)"/>
<path style="mix-blend-mode:overlay" opacity="0.5" d="M396.36 944H333.64C331.63 944 330 946.07 330 948.624V1008.38C330 1010.93 331.63 1013 333.64 1013H396.36C398.37 1013 400 1010.93 400 1008.38V948.624C400 946.07 398.37 944 396.36 944Z" stroke="url(#paint33_linear_5_17334)"/>
<path style="mix-blend-mode:overlay" opacity="0.2" d="M318.111 944H255.889C253.741 944 252 946.239 252 949V1009C252 1011.76 253.741 1014 255.889 1014H318.111C320.259 1014 322 1011.76 322 1009V949C322 946.239 320.259 944 318.111 944Z" fill="url(#paint34_linear_5_17334)"/>
<path style="mix-blend-mode:overlay" opacity="0.5" d="M318.36 944H255.64C253.63 944 252 946.07 252 948.624V1008.38C252 1010.93 253.63 1013 255.64 1013H318.36C320.37 1013 322 1010.93 322 1008.38V948.624C322 946.07 320.37 944 318.36 944Z" stroke="url(#paint35_linear_5_17334)"/>
<path style="mix-blend-mode:overlay" opacity="0.15" d="M411.092 514H235.908C230.994 514 227 516.686 227 520V567C227 570.314 230.994 573 235.908 573H411.092C416.006 573 420 570.314 420 567V520C420 516.686 416.006 514 411.092 514Z" fill="url(#paint36_linear_5_17334)"/>
<path style="mix-blend-mode:overlay" opacity="0.7" d="M236.143 515H410.857C415.358 515 419 517.462 419 520.5V567.5C419 570.538 415.358 573 410.857 573H236.143C231.642 573 228 570.538 228 567.5V520.5C228 517.462 231.642 515 236.143 515Z" stroke="url(#paint37_linear_5_17334)"/>
</g>
</g>
<defs>
<linearGradient id="paint0_linear_5_17334" x1="nan" y1="nan" x2="nan" y2="nan" gradientUnits="userSpaceOnUse">
<stop offset="0.124" stop-opacity="0"/>
<stop offset="0.216"/>
<stop offset="0.862"/>
<stop offset="0.95" stop-opacity="0"/>
</linearGradient>
<linearGradient id="paint1_linear_5_17334" x1="nan" y1="nan" x2="nan" y2="nan" gradientUnits="userSpaceOnUse">
<stop offset="0.14" stop-opacity="0"/>
<stop offset="0.263"/>
<stop offset="0.84"/>
<stop offset="0.928" stop-opacity="0"/>
</linearGradient>
<linearGradient id="paint2_linear_5_17334" x1="nan" y1="nan" x2="nan" y2="nan" gradientUnits="userSpaceOnUse">
<stop stop-opacity="0"/>
<stop offset="0.142"/>
<stop offset="0.725"/>
<stop offset="0.844" stop-opacity="0"/>
</linearGradient>
<linearGradient id="paint3_linear_5_17334" x1="nan" y1="nan" x2="nan" y2="nan" gradientUnits="userSpaceOnUse">
<stop stop-opacity="0"/>
<stop offset="0.142"/>
<stop offset="0.735"/>
<stop offset="0.875" stop-opacity="0"/>
</linearGradient>
<linearGradient id="paint4_linear_5_17334" x1="nan" y1="nan" x2="nan" y2="nan" gradientUnits="userSpaceOnUse">
<stop stop-opacity="0"/>
<stop offset="0.142"/>
<stop offset="0.745"/>
<stop offset="0.886" stop-opacity="0"/>
</linearGradient>
<linearGradient id="paint5_linear_5_17334" x1="nan" y1="nan" x2="nan" y2="nan" gradientUnits="userSpaceOnUse">
<stop stop-opacity="0"/>
<stop offset="0.142"/>
<stop offset="0.78"/>
<stop offset="0.886" stop-opacity="0"/>
</linearGradient>
<linearGradient id="paint6_linear_5_17334" x1="nan" y1="nan" x2="nan" y2="nan" gradientUnits="userSpaceOnUse">
<stop offset="0.133" stop-opacity="0"/>
<stop offset="0.212"/>
<stop offset="0.897"/>
<stop offset="0.974" stop-opacity="0"/>
</linearGradient>
<linearGradient id="paint7_linear_5_17334" x1="nan" y1="nan" x2="nan" y2="nan" gradientUnits="userSpaceOnUse">
<stop offset="0.165" stop-opacity="0"/>
<stop offset="0.287"/>
<stop offset="0.805"/>
<stop offset="0.874" stop-opacity="0"/>
</linearGradient>
<linearGradient id="paint8_linear_5_17334" x1="nan" y1="nan" x2="nan" y2="nan" gradientUnits="userSpaceOnUse">
<stop offset="0.083" stop-opacity="0"/>
<stop offset="0.137"/>
<stop offset="0.813"/>
<stop offset="0.946" stop-opacity="0"/>
</linearGradient>
<linearGradient id="paint9_linear_5_17334" x1="nan" y1="nan" x2="nan" y2="nan" gradientUnits="userSpaceOnUse">
<stop offset="0.083" stop-opacity="0"/>
<stop offset="0.137"/>
<stop offset="0.813"/>
<stop offset="0.946" stop-opacity="0"/>
</linearGradient>
<linearGradient id="paint10_linear_5_17334" x1="nan" y1="nan" x2="nan" y2="nan" gradientUnits="userSpaceOnUse">
<stop offset="0.058" stop-opacity="0"/>
<stop offset="0.121"/>
<stop offset="0.742"/>
<stop offset="0.849" stop-opacity="0"/>
</linearGradient>
<linearGradient id="paint11_linear_5_17334" x1="nan" y1="nan" x2="nan" y2="nan" gradientUnits="userSpaceOnUse">
<stop offset="0.063" stop-opacity="0"/>
<stop offset="0.121"/>
<stop offset="0.741"/>
<stop offset="0.862" stop-opacity="0"/>
</linearGradient>
<linearGradient id="paint12_linear_5_17334" x1="nan" y1="nan" x2="nan" y2="nan" gradientUnits="userSpaceOnUse">
<stop stop-opacity="0"/>
<stop offset="0.073"/>
<stop offset="0.239"/>
<stop offset="0.274" stop-opacity="0.28"/>
<stop offset="0.307" stop-opacity="0"/>
<stop offset="0.391" stop-opacity="0"/>
<stop offset="0.419" stop-opacity="0.7"/>
<stop offset="0.453"/>
<stop offset="0.84"/>
<stop offset="0.902" stop-opacity="0"/>
</linearGradient>
<linearGradient id="paint13_linear_5_17334" x1="nan" y1="nan" x2="nan" y2="nan" gradientUnits="userSpaceOnUse">
<stop offset="0.028" stop-opacity="0"/>
<stop offset="0.097"/>
<stop offset="0.366"/>
<stop offset="0.396" stop-opacity="0.29"/>
<stop offset="0.42" stop-opacity="0"/>
<stop offset="0.482" stop-opacity="0"/>
<stop offset="0.512" stop-opacity="0.29"/>
<stop offset="0.544"/>
<stop offset="0.868"/>
<stop offset="0.919" stop-opacity="0"/>
</linearGradient>
<linearGradient id="paint14_linear_5_17334" x1="nan" y1="nan" x2="nan" y2="nan" gradientUnits="userSpaceOnUse">
<stop offset="0.099" stop-opacity="0"/>
<stop offset="0.189"/>
<stop offset="0.652"/>
<stop offset="0.75" stop-opacity="0"/>
</linearGradient>
<linearGradient id="paint15_linear_5_17334" x1="nan" y1="nan" x2="nan" y2="nan" gradientUnits="userSpaceOnUse">
<stop offset="0.099" stop-opacity="0"/>
<stop offset="0.189"/>
<stop offset="0.652"/>
<stop offset="0.75" stop-opacity="0"/>
</linearGradient>
<linearGradient id="paint16_linear_5_17334" x1="nan" y1="nan" x2="nan" y2="nan" gradientUnits="userSpaceOnUse">
<stop offset="0.004" stop-opacity="0"/>
<stop offset="0.037"/>
<stop offset="0.241"/>
<stop offset="0.274" stop-opacity="0.3"/>
<stop offset="0.307" stop-opacity="0"/>
<stop offset="0.382" stop-opacity="0"/>
<stop offset="0.415" stop-opacity="0.34"/>
<stop offset="0.443"/>
<stop offset="0.839"/>
<stop offset="0.908" stop-opacity="0"/>
</linearGradient>
<linearGradient id="paint17_linear_5_17334" x1="nan" y1="nan" x2="nan" y2="nan" gradientUnits="userSpaceOnUse">
<stop stop-opacity="0"/>
<stop offset="0.082"/>
<stop offset="0.347"/>
<stop offset="0.392" stop-opacity="0.31"/>
<stop offset="0.413" stop-opacity="0"/>
<stop offset="0.484" stop-opacity="0"/>
<stop offset="0.512" stop-opacity="0.24"/>
<stop offset="0.547"/>
<stop offset="0.871"/>
<stop offset="0.937" stop-opacity="0"/>
</linearGradient>
<linearGradient id="paint18_linear_5_17334" x1="nan" y1="nan" x2="nan" y2="nan" gradientUnits="userSpaceOnUse">
<stop offset="0.099" stop-opacity="0"/>
<stop offset="0.2"/>
<stop offset="0.652"/>
<stop offset="0.75" stop-opacity="0"/>
</linearGradient>
<linearGradient id="paint19_linear_5_17334" x1="nan" y1="nan" x2="nan" y2="nan" gradientUnits="userSpaceOnUse">
<stop offset="0.099" stop-opacity="0"/>
<stop offset="0.189"/>
<stop offset="0.652"/>
<stop offset="0.75" stop-opacity="0"/>
</linearGradient>
<linearGradient id="paint20_linear_5_17334" x1="252" y1="869" x2="334.247" y2="918.755" gradientUnits="userSpaceOnUse">
<stop stop-opacity="0.2"/>
<stop offset="0.699"/>
</linearGradient>
<linearGradient id="paint21_linear_5_17334" x1="251.72" y1="868.644" x2="334.085" y2="919.076" gradientUnits="userSpaceOnUse">
<stop stop-opacity="0.2"/>
<stop offset="0.858"/>
</linearGradient>
<linearGradient id="paint22_linear_5_17334" x1="1021" y1="670" x2="1202.52" y2="576.145" gradientUnits="userSpaceOnUse">
<stop/>
<stop offset="1" stop-opacity="0.6"/>
</linearGradient>
<linearGradient id="paint23_linear_5_17334" x1="1185.53" y1="509.35" x2="1036.79" y2="639.798" gradientUnits="userSpaceOnUse">
<stop stop-opacity="0.6"/>
<stop offset="1"/>
</linearGradient>
<linearGradient id="paint24_linear_5_17334" x1="1021" y1="840" x2="1202.52" y2="746.145" gradientUnits="userSpaceOnUse">
<stop/>
<stop offset="1" stop-opacity="0.6"/>
</linearGradient>
<linearGradient id="paint25_linear_5_17334" x1="1185.53" y1="679.35" x2="1036.79" y2="809.798" gradientUnits="userSpaceOnUse">
<stop stop-opacity="0.6"/>
<stop offset="1"/>
</linearGradient>
<linearGradient id="paint26_linear_5_17334" x1="1196" y1="840" x2="1377.52" y2="746.145" gradientUnits="userSpaceOnUse">
<stop/>
<stop offset="1" stop-opacity="0.6"/>
</linearGradient>
<linearGradient id="paint27_linear_5_17334" x1="1360.53" y1="679.35" x2="1211.79" y2="809.798" gradientUnits="userSpaceOnUse">
<stop stop-opacity="0.6"/>
<stop offset="1"/>
</linearGradient>
<linearGradient id="paint28_linear_5_17334" x1="1196" y1="670" x2="1377.52" y2="576.145" gradientUnits="userSpaceOnUse">
<stop/>
<stop offset="1" stop-opacity="0.6"/>
</linearGradient>
<linearGradient id="paint29_linear_5_17334" x1="1360.53" y1="509.35" x2="1211.79" y2="639.798" gradientUnits="userSpaceOnUse">
<stop stop-opacity="0.6"/>
<stop offset="1"/>
</linearGradient>
<linearGradient id="paint30_linear_5_17334" x1="330" y1="869" x2="412.247" y2="918.755" gradientUnits="userSpaceOnUse">
<stop stop-opacity="0.2"/>
<stop offset="0.699"/>
</linearGradient>
<linearGradient id="paint31_linear_5_17334" x1="329.72" y1="868.644" x2="412.085" y2="919.076" gradientUnits="userSpaceOnUse">
<stop stop-opacity="0.2"/>
<stop offset="0.858"/>
</linearGradient>
<linearGradient id="paint32_linear_5_17334" x1="330" y1="944" x2="412.247" y2="993.755" gradientUnits="userSpaceOnUse">
<stop stop-opacity="0.2"/>
<stop offset="0.699"/>
</linearGradient>
<linearGradient id="paint33_linear_5_17334" x1="329.72" y1="943.644" x2="412.085" y2="994.076" gradientUnits="userSpaceOnUse">
<stop stop-opacity="0.2"/>
<stop offset="0.858"/>
</linearGradient>
<linearGradient id="paint34_linear_5_17334" x1="252" y1="944" x2="334.247" y2="993.755" gradientUnits="userSpaceOnUse">
<stop stop-opacity="0.2"/>
<stop offset="0.699"/>
</linearGradient>
<linearGradient id="paint35_linear_5_17334" x1="251.72" y1="943.644" x2="334.085" y2="994.076" gradientUnits="userSpaceOnUse">
<stop stop-opacity="0.2"/>
<stop offset="0.858"/>
</linearGradient>
<linearGradient id="paint36_linear_5_17334" x1="379.173" y1="514" x2="349.203" y2="584.004" gradientUnits="userSpaceOnUse">
<stop stop-opacity="0.7"/>
<stop offset="1"/>
</linearGradient>
<linearGradient id="paint37_linear_5_17334" x1="371.62" y1="514.5" x2="346.488" y2="582.052" gradientUnits="userSpaceOnUse">
<stop stop-opacity="0.7"/>
<stop offset="1"/>
</linearGradient>
<clipPath id="clip0_5_17334">
<rect width="1574" height="1474" fill="white"/>
</clipPath>
</defs>
</svg>
