<svg width="1574" height="1474" viewBox="0 0 1574 1474" fill="none" xmlns="http://www.w3.org/2000/svg">
<g clip-path="url(#clip0_5_17334)">
<mask id="mask0_5_17334" style="mask-type:luminance" maskUnits="userSpaceOnUse" x="0" y="136" width="1574" height="1474">
<path d="M1574 136H0V1610H1574V136Z" fill="white"/>
</mask>
<g mask="url(#mask0_5_17334)">
<path style="mix-blend-mode:overlay" opacity="0.3" d="M848.5 269V997" stroke="url(#paint0_linear_5_17334)"/>
<path style="mix-blend-mode:overlay" opacity="0.3" d="M828.5 269V997" stroke="url(#paint1_linear_5_17334)"/>
<path style="mix-blend-mode:overlay" opacity="0.3" d="M596.5 609V1001" stroke="url(#paint2_linear_5_17334)"/>
<path style="mix-blend-mode:overlay" opacity="0.3" d="M438.5 663V1001" stroke="url(#paint3_linear_5_17334)"/>
<path style="mix-blend-mode:overlay" opacity="0.3" d="M576.5 609V1001" stroke="url(#paint4_linear_5_17334)"/>
<path style="mix-blend-mode:overlay" opacity="0.3" d="M418.5 668V1001" stroke="url(#paint5_linear_5_17334)"/>
<path style="mix-blend-mode:overlay" opacity="0.3" d="M1016.5 269V998" stroke="url(#paint6_linear_5_17334)"/>
<path style="mix-blend-mode:overlay" opacity="0.3" d="M996.5 233V1103" stroke="url(#paint7_linear_5_17334)"/>
<path style="mix-blend-mode:overlay" opacity="0.3" d="M1382.5 233V1707" stroke="url(#paint8_linear_5_17334)"/>
<path style="mix-blend-mode:overlay" opacity="0.3" d="M1362.5 233V1707" stroke="url(#paint9_linear_5_17334)"/>
<path style="mix-blend-mode:overlay" opacity="0.3" d="M1573 403.5H717" stroke="url(#paint10_linear_5_17334)"/>
<path style="mix-blend-mode:overlay" opacity="0.3" d="M1573 383.5H717" stroke="url(#paint11_linear_5_17334)"/>
<path style="mix-blend-mode:overlay" opacity="0.3" d="M1573 744H251" stroke="url(#paint12_linear_5_17334)"/>
<path style="mix-blend-mode:overlay" opacity="0.3" d="M1573 936.5H-1" stroke="url(#paint13_linear_5_17334)"/>
<path style="mix-blend-mode:overlay" opacity="0.3" d="M1573 1200.5H1030" stroke="url(#paint14_linear_5_17334)"/>
<path style="mix-blend-mode:overlay" opacity="0.3" d="M1573 1056.5H1030" stroke="url(#paint15_linear_5_17334)"/>
<path style="mix-blend-mode:overlay" opacity="0.3" d="M1573 764L-1 764" stroke="url(#paint16_linear_5_17334)"/>
<path style="mix-blend-mode:overlay" opacity="0.3" d="M1573 916.5H-1" stroke="url(#paint17_linear_5_17334)"/>
<path style="mix-blend-mode:overlay" opacity="0.3" d="M1573 1220.5H1030" stroke="url(#paint18_linear_5_17334)"/>
<path style="mix-blend-mode:overlay" opacity="0.3" d="M1573 1076.5H1030" stroke="url(#paint19_linear_5_17334)"/>
<path style="mix-blend-mode:overlay" opacity="0.2" d="M317.111 769H254.889C252.741 769 251 771.239 251 774V834C251 836.761 252.741 839 254.889 839H317.111C319.259 839 321 836.761 321 834V774C321 771.239 319.259 769 317.111 769Z" fill="url(#paint20_linear_5_17334)"/>
<path style="mix-blend-mode:overlay" opacity="0.5" d="M317.36 769H254.64C252.63 769 251 771.07 251 773.624V833.376C251 835.93 252.63 838 254.64 838H317.36C319.37 838 321 835.93 321 833.376V773.624C321 771.07 319.37 769 317.36 769Z" stroke="url(#paint21_linear_5_17334)"/>
<path style="mix-blend-mode:overlay" opacity="0.2" d="M1179.79 410H1024.21C1021.88 410 1020 412.311 1020 415.161V564.839C1020 567.689 1021.88 570 1024.21 570H1179.79C1182.12 570 1184 567.689 1184 564.839V415.161C1184 412.311 1182.12 410 1179.79 410Z" fill="url(#paint22_linear_5_17334)"/>
<path style="mix-blend-mode:overlay" opacity="0.7" d="M1180.3 410H1023.7C1021.66 410 1020 412.038 1020 414.553V565.447C1020 567.962 1021.66 570 1023.7 570H1180.3C1182.34 570 1184 567.962 1184 565.447V414.553C1184 412.038 1182.34 410 1180.3 410Z" stroke="url(#paint23_linear_5_17334)"/>
<path style="mix-blend-mode:overlay" opacity="0.2" d="M1179.79 580H1024.21C1021.88 580 1020 582.311 1020 585.161V734.839C1020 737.689 1021.88 740 1024.21 740H1179.79C1182.12 740 1184 737.689 1184 734.839V585.161C1184 582.311 1182.12 580 1179.79 580Z" fill="url(#paint24_linear_5_17334)"/>
<path style="mix-blend-mode:overlay" opacity="0.7" d="M1180.3 580H1023.7C1021.66 580 1020 582.038 1020 584.553V735.447C1020 737.962 1021.66 740 1023.7 740H1180.3C1182.34 740 1184 737.962 1184 735.447V584.553C1184 582.038 1182.34 580 1180.3 580Z" stroke="url(#paint25_linear_5_17334)"/>
<path style="mix-blend-mode:overlay" opacity="0.2" d="M1354.79 580H1199.21C1196.88 580 1195 582.311 1195 585.161V734.839C1195 737.689 1196.88 740 1199.21 740H1354.79C1357.12 740 1359 737.689 1359 734.839V585.161C1359 582.311 1357.12 580 1354.79 580Z" fill="url(#paint26_linear_5_17334)"/>
<path style="mix-blend-mode:overlay" opacity="0.7" d="M1355.3 580H1198.7C1196.66 580 1195 582.038 1195 584.553V735.447C1195 737.962 1196.66 740 1198.7 740H1355.3C1357.34 740 1359 737.962 1359 735.447V584.553C1359 582.038 1357.34 580 1355.3 580Z" stroke="url(#paint27_linear_5_17334)"/>
<path style="mix-blend-mode:overlay" opacity="0.2" d="M1354.79 410H1199.21C1196.88 410 1195 412.311 1195 415.161V564.839C1195 567.689 1196.88 570 1199.21 570H1354.79C1357.12 570 1359 567.689 1359 564.839V415.161C1359 412.311 1357.12 410 1354.79 410Z" fill="url(#paint28_linear_5_17334)"/>
<path style="mix-blend-mode:overlay" opacity="0.7" d="M1355.3 410H1198.7C1196.66 410 1195 412.038 1195 414.553V565.447C1195 567.962 1196.66 570 1198.7 570H1355.3C1357.34 570 1359 567.962 1359 565.447V414.553C1359 412.038 1357.34 410 1355.3 410Z" stroke="url(#paint29_linear_5_17334)"/>
<path style="mix-blend-mode:overlay" opacity="0.2" d="M395.111 769H332.889C330.741 769 329 771.239 329 774V834C329 836.761 330.741 839 332.889 839H395.111C397.259 839 399 836.761 399 834V774C399 771.239 397.259 769 395.111 769Z" fill="url(#paint30_linear_5_17334)"/>
<path style="mix-blend-mode:overlay" opacity="0.5" d="M395.36 769H332.64C330.63 769 329 771.07 329 773.624V833.376C329 835.93 330.63 838 332.64 838H395.36C397.37 838 399 835.93 399 833.376V773.624C399 771.07 397.37 769 395.36 769Z" stroke="url(#paint31_linear_5_17334)"/>
<path style="mix-blend-mode:overlay" opacity="0.2" d="M395.111 844H332.889C330.741 844 329 846.239 329 849V909C329 911.76 330.741 914 332.889 914H395.111C397.259 914 399 911.76 399 909V849C399 846.239 397.259 844 395.111 844Z" fill="url(#paint32_linear_5_17334)"/>
<path style="mix-blend-mode:overlay" opacity="0.5" d="M395.36 844H332.64C330.63 844 329 846.07 329 848.624V908.38C329 910.93 330.63 913 332.64 913H395.36C397.37 913 399 910.93 399 908.38V848.624C399 846.07 397.37 844 395.36 844Z" stroke="url(#paint33_linear_5_17334)"/>
<path style="mix-blend-mode:overlay" opacity="0.2" d="M317.111 844H254.889C252.741 844 251 846.239 251 849V909C251 911.76 252.741 914 254.889 914H317.111C319.259 914 321 911.76 321 909V849C321 846.239 319.259 844 317.111 844Z" fill="url(#paint34_linear_5_17334)"/>
<path style="mix-blend-mode:overlay" opacity="0.5" d="M317.36 844H254.64C252.63 844 251 846.07 251 848.624V908.38C251 910.93 252.63 913 254.64 913H317.36C319.37 913 321 910.93 321 908.38V848.624C321 846.07 319.37 844 317.36 844Z" stroke="url(#paint35_linear_5_17334)"/>
<path style="mix-blend-mode:overlay" opacity="0.15" d="M410.092 414H234.908C229.994 414 226 416.686 226 420V467C226 470.314 229.994 473 234.908 473H410.092C415.006 473 419 470.314 419 467V420C419 416.686 415.006 414 410.092 414Z" fill="url(#paint36_linear_5_17334)"/>
<path style="mix-blend-mode:overlay" opacity="0.7" d="M235.143 415H409.857C414.358 415 418 417.462 418 420.5V467.5C418 470.538 414.358 473 409.857 473H235.143C230.642 473 227 470.538 227 467.5V420.5C227 417.462 230.642 415 235.143 415Z" stroke="url(#paint37_linear_5_17334)"/>
</g>
</g>
<defs>
<linearGradient id="paint0_linear_5_17334" x1="nan" y1="nan" x2="nan" y2="nan" gradientUnits="userSpaceOnUse">
<stop offset="0.124" stop-opacity="0"/>
<stop offset="0.216"/>
<stop offset="0.862"/>
<stop offset="0.95" stop-opacity="0"/>
</linearGradient>
<linearGradient id="paint1_linear_5_17334" x1="nan" y1="nan" x2="nan" y2="nan" gradientUnits="userSpaceOnUse">
<stop offset="0.14" stop-opacity="0"/>
<stop offset="0.263"/>
<stop offset="0.84"/>
<stop offset="0.928" stop-opacity="0"/>
</linearGradient>
<linearGradient id="paint2_linear_5_17334" x1="nan" y1="nan" x2="nan" y2="nan" gradientUnits="userSpaceOnUse">
<stop stop-opacity="0"/>
<stop offset="0.142"/>
<stop offset="0.725"/>
<stop offset="0.844" stop-opacity="0"/>
</linearGradient>
<linearGradient id="paint3_linear_5_17334" x1="nan" y1="nan" x2="nan" y2="nan" gradientUnits="userSpaceOnUse">
<stop stop-opacity="0"/>
<stop offset="0.142"/>
<stop offset="0.735"/>
<stop offset="0.875" stop-opacity="0"/>
</linearGradient>
<linearGradient id="paint4_linear_5_17334" x1="nan" y1="nan" x2="nan" y2="nan" gradientUnits="userSpaceOnUse">
<stop stop-opacity="0"/>
<stop offset="0.142"/>
<stop offset="0.745"/>
<stop offset="0.886" stop-opacity="0"/>
</linearGradient>
<linearGradient id="paint5_linear_5_17334" x1="nan" y1="nan" x2="nan" y2="nan" gradientUnits="userSpaceOnUse">
<stop stop-opacity="0"/>
<stop offset="0.142"/>
<stop offset="0.78"/>
<stop offset="0.886" stop-opacity="0"/>
</linearGradient>
<linearGradient id="paint6_linear_5_17334" x1="nan" y1="nan" x2="nan" y2="nan" gradientUnits="userSpaceOnUse">
<stop offset="0.133" stop-opacity="0"/>
<stop offset="0.212"/>
<stop offset="0.897"/>
<stop offset="0.974" stop-opacity="0"/>
</linearGradient>
<linearGradient id="paint7_linear_5_17334" x1="nan" y1="nan" x2="nan" y2="nan" gradientUnits="userSpaceOnUse">
<stop offset="0.165" stop-opacity="0"/>
<stop offset="0.287"/>
<stop offset="0.805"/>
<stop offset="0.874" stop-opacity="0"/>
</linearGradient>
<linearGradient id="paint8_linear_5_17334" x1="nan" y1="nan" x2="nan" y2="nan" gradientUnits="userSpaceOnUse">
<stop offset="0.083" stop-opacity="0"/>
<stop offset="0.137"/>
<stop offset="0.813"/>
<stop offset="0.946" stop-opacity="0"/>
</linearGradient>
<linearGradient id="paint9_linear_5_17334" x1="nan" y1="nan" x2="nan" y2="nan" gradientUnits="userSpaceOnUse">
<stop offset="0.083" stop-opacity="0"/>
<stop offset="0.137"/>
<stop offset="0.813"/>
<stop offset="0.946" stop-opacity="0"/>
</linearGradient>
<linearGradient id="paint10_linear_5_17334" x1="nan" y1="nan" x2="nan" y2="nan" gradientUnits="userSpaceOnUse">
<stop offset="0.058" stop-opacity="0"/>
<stop offset="0.121"/>
<stop offset="0.742"/>
<stop offset="0.849" stop-opacity="0"/>
</linearGradient>
<linearGradient id="paint11_linear_5_17334" x1="nan" y1="nan" x2="nan" y2="nan" gradientUnits="userSpaceOnUse">
<stop offset="0.063" stop-opacity="0"/>
<stop offset="0.121"/>
<stop offset="0.741"/>
<stop offset="0.862" stop-opacity="0"/>
</linearGradient>
<linearGradient id="paint12_linear_5_17334" x1="nan" y1="nan" x2="nan" y2="nan" gradientUnits="userSpaceOnUse">
<stop stop-opacity="0"/>
<stop offset="0.073"/>
<stop offset="0.239"/>
<stop offset="0.274" stop-opacity="0.28"/>
<stop offset="0.307" stop-opacity="0"/>
<stop offset="0.391" stop-opacity="0"/>
<stop offset="0.419" stop-opacity="0.7"/>
<stop offset="0.453"/>
<stop offset="0.84"/>
<stop offset="0.902" stop-opacity="0"/>
</linearGradient>
<linearGradient id="paint13_linear_5_17334" x1="nan" y1="nan" x2="nan" y2="nan" gradientUnits="userSpaceOnUse">
<stop offset="0.028" stop-opacity="0"/>
<stop offset="0.097"/>
<stop offset="0.366"/>
<stop offset="0.396" stop-opacity="0.29"/>
<stop offset="0.42" stop-opacity="0"/>
<stop offset="0.482" stop-opacity="0"/>
<stop offset="0.512" stop-opacity="0.29"/>
<stop offset="0.544"/>
<stop offset="0.868"/>
<stop offset="0.919" stop-opacity="0"/>
</linearGradient>
<linearGradient id="paint14_linear_5_17334" x1="nan" y1="nan" x2="nan" y2="nan" gradientUnits="userSpaceOnUse">
<stop offset="0.099" stop-opacity="0"/>
<stop offset="0.189"/>
<stop offset="0.652"/>
<stop offset="0.75" stop-opacity="0"/>
</linearGradient>
<linearGradient id="paint15_linear_5_17334" x1="nan" y1="nan" x2="nan" y2="nan" gradientUnits="userSpaceOnUse">
<stop offset="0.099" stop-opacity="0"/>
<stop offset="0.189"/>
<stop offset="0.652"/>
<stop offset="0.75" stop-opacity="0"/>
</linearGradient>
<linearGradient id="paint16_linear_5_17334" x1="nan" y1="nan" x2="nan" y2="nan" gradientUnits="userSpaceOnUse">
<stop offset="0.004" stop-opacity="0"/>
<stop offset="0.037"/>
<stop offset="0.241"/>
<stop offset="0.274" stop-opacity="0.3"/>
<stop offset="0.307" stop-opacity="0"/>
<stop offset="0.382" stop-opacity="0"/>
<stop offset="0.415" stop-opacity="0.34"/>
<stop offset="0.443"/>
<stop offset="0.839"/>
<stop offset="0.908" stop-opacity="0"/>
</linearGradient>
<linearGradient id="paint17_linear_5_17334" x1="nan" y1="nan" x2="nan" y2="nan" gradientUnits="userSpaceOnUse">
<stop stop-opacity="0"/>
<stop offset="0.082"/>
<stop offset="0.347"/>
<stop offset="0.392" stop-opacity="0.31"/>
<stop offset="0.413" stop-opacity="0"/>
<stop offset="0.484" stop-opacity="0"/>
<stop offset="0.512" stop-opacity="0.24"/>
<stop offset="0.547"/>
<stop offset="0.871"/>
<stop offset="0.937" stop-opacity="0"/>
</linearGradient>
<linearGradient id="paint18_linear_5_17334" x1="nan" y1="nan" x2="nan" y2="nan" gradientUnits="userSpaceOnUse">
<stop offset="0.099" stop-opacity="0"/>
<stop offset="0.2"/>
<stop offset="0.652"/>
<stop offset="0.75" stop-opacity="0"/>
</linearGradient>
<linearGradient id="paint19_linear_5_17334" x1="nan" y1="nan" x2="nan" y2="nan" gradientUnits="userSpaceOnUse">
<stop offset="0.099" stop-opacity="0"/>
<stop offset="0.189"/>
<stop offset="0.652"/>
<stop offset="0.75" stop-opacity="0"/>
</linearGradient>
<linearGradient id="paint20_linear_5_17334" x1="251" y1="769" x2="333.247" y2="818.755" gradientUnits="userSpaceOnUse">
<stop stop-opacity="0.2"/>
<stop offset="0.699"/>
</linearGradient>
<linearGradient id="paint21_linear_5_17334" x1="250.72" y1="768.644" x2="333.085" y2="819.076" gradientUnits="userSpaceOnUse">
<stop stop-opacity="0.2"/>
<stop offset="0.858"/>
</linearGradient>
<linearGradient id="paint22_linear_5_17334" x1="1020" y1="570" x2="1201.52" y2="476.145" gradientUnits="userSpaceOnUse">
<stop/>
<stop offset="1" stop-opacity="0.6"/>
</linearGradient>
<linearGradient id="paint23_linear_5_17334" x1="1184.53" y1="409.35" x2="1035.79" y2="539.798" gradientUnits="userSpaceOnUse">
<stop stop-opacity="0.6"/>
<stop offset="1"/>
</linearGradient>
<linearGradient id="paint24_linear_5_17334" x1="1020" y1="740" x2="1201.52" y2="646.145" gradientUnits="userSpaceOnUse">
<stop/>
<stop offset="1" stop-opacity="0.6"/>
</linearGradient>
<linearGradient id="paint25_linear_5_17334" x1="1184.53" y1="579.35" x2="1035.79" y2="709.798" gradientUnits="userSpaceOnUse">
<stop stop-opacity="0.6"/>
<stop offset="1"/>
</linearGradient>
<linearGradient id="paint26_linear_5_17334" x1="1195" y1="740" x2="1376.52" y2="646.145" gradientUnits="userSpaceOnUse">
<stop/>
<stop offset="1" stop-opacity="0.6"/>
</linearGradient>
<linearGradient id="paint27_linear_5_17334" x1="1359.53" y1="579.35" x2="1210.79" y2="709.798" gradientUnits="userSpaceOnUse">
<stop stop-opacity="0.6"/>
<stop offset="1"/>
</linearGradient>
<linearGradient id="paint28_linear_5_17334" x1="1195" y1="570" x2="1376.52" y2="476.145" gradientUnits="userSpaceOnUse">
<stop/>
<stop offset="1" stop-opacity="0.6"/>
</linearGradient>
<linearGradient id="paint29_linear_5_17334" x1="1359.53" y1="409.35" x2="1210.79" y2="539.798" gradientUnits="userSpaceOnUse">
<stop stop-opacity="0.6"/>
<stop offset="1"/>
</linearGradient>
<linearGradient id="paint30_linear_5_17334" x1="329" y1="769" x2="411.247" y2="818.755" gradientUnits="userSpaceOnUse">
<stop stop-opacity="0.2"/>
<stop offset="0.699"/>
</linearGradient>
<linearGradient id="paint31_linear_5_17334" x1="328.72" y1="768.644" x2="411.085" y2="819.076" gradientUnits="userSpaceOnUse">
<stop stop-opacity="0.2"/>
<stop offset="0.858"/>
</linearGradient>
<linearGradient id="paint32_linear_5_17334" x1="329" y1="844" x2="411.247" y2="893.755" gradientUnits="userSpaceOnUse">
<stop stop-opacity="0.2"/>
<stop offset="0.699"/>
</linearGradient>
<linearGradient id="paint33_linear_5_17334" x1="328.72" y1="843.644" x2="411.085" y2="894.076" gradientUnits="userSpaceOnUse">
<stop stop-opacity="0.2"/>
<stop offset="0.858"/>
</linearGradient>
<linearGradient id="paint34_linear_5_17334" x1="251" y1="844" x2="333.247" y2="893.755" gradientUnits="userSpaceOnUse">
<stop stop-opacity="0.2"/>
<stop offset="0.699"/>
</linearGradient>
<linearGradient id="paint35_linear_5_17334" x1="250.72" y1="843.644" x2="333.085" y2="894.076" gradientUnits="userSpaceOnUse">
<stop stop-opacity="0.2"/>
<stop offset="0.858"/>
</linearGradient>
<linearGradient id="paint36_linear_5_17334" x1="378.173" y1="414" x2="348.203" y2="484.004" gradientUnits="userSpaceOnUse">
<stop stop-opacity="0.7"/>
<stop offset="1"/>
</linearGradient>
<linearGradient id="paint37_linear_5_17334" x1="370.62" y1="414.5" x2="345.488" y2="482.052" gradientUnits="userSpaceOnUse">
<stop stop-opacity="0.7"/>
<stop offset="1"/>
</linearGradient>
<clipPath id="clip0_5_17334">
<rect width="1574" height="1474" fill="white"/>
</clipPath>
</defs>
</svg>
